<svg width="30" height="30" viewBox="0 0 30 30" fill="none" xmlns="http://www.w3.org/2000/svg">
<path d="M14.4873 7.99023C13.806 7.99023 13.1628 8.09603 12.5576 8.30762C11.9525 8.51497 11.432 8.81755 10.9961 9.21533C10.8311 9.35921 10.6512 9.4502 10.4565 9.48828C10.2661 9.52214 10.0863 9.46924 9.91699 9.32959C9.73079 9.17725 9.63135 8.98258 9.61865 8.74561C9.61019 8.50863 9.72021 8.28011 9.94873 8.06006C10.3 7.72152 10.7168 7.43164 11.1992 7.19043C11.6859 6.94499 12.2085 6.75879 12.7671 6.63184C13.3257 6.50488 13.8991 6.44141 14.4873 6.44141C15.3675 6.44141 16.2033 6.57682 16.9946 6.84766C17.7902 7.11849 18.4673 7.52262 19.0259 8.06006C19.2544 8.28011 19.3644 8.50863 19.356 8.74561C19.3475 8.98258 19.248 9.17725 19.0576 9.32959C18.8883 9.46924 18.7085 9.52214 18.5181 9.48828C18.3276 9.4502 18.1478 9.35921 17.9785 9.21533C17.5469 8.81755 17.0285 8.51497 16.4233 8.30762C15.8182 8.09603 15.1729 7.99023 14.4873 7.99023ZM14.4937 10.8213C14.2228 10.8213 13.9414 10.8657 13.6494 10.9546C13.3574 11.0435 13.1226 11.1535 12.9448 11.2847C12.7756 11.4074 12.5957 11.4814 12.4053 11.5068C12.2191 11.5322 12.0456 11.4814 11.8848 11.3545C11.6943 11.2148 11.597 11.0223 11.5928 10.7769C11.5885 10.5314 11.6943 10.3114 11.9102 10.1167C12.2106 9.84163 12.5894 9.63216 13.0464 9.48828C13.5034 9.3444 13.9858 9.27246 14.4937 9.27246C15.0057 9.27246 15.4881 9.3444 15.9409 9.48828C16.3979 9.63216 16.7788 9.84163 17.0835 10.1167C17.2909 10.3114 17.3924 10.5314 17.3882 10.7769C17.384 11.0223 17.2909 11.2148 17.1089 11.3545C16.9438 11.4814 16.7682 11.5322 16.582 11.5068C16.3958 11.4814 16.216 11.4074 16.0425 11.2847C15.8647 11.1535 15.6299 11.0435 15.3379 10.9546C15.0501 10.8657 14.7687 10.8213 14.4937 10.8213ZM14.4937 21.4346C14.0493 21.4346 13.5838 21.4282 13.0972 21.4155C12.6147 21.4071 12.145 21.3944 11.688 21.3774C11.231 21.3605 10.812 21.3394 10.4312 21.314C10.0545 21.2886 9.74984 21.2632 9.51709 21.2378C9.06429 21.187 8.70882 21.0283 8.45068 20.7617C8.19678 20.4993 8.06982 20.1523 8.06982 19.7207V18.8257C8.06982 18.3348 8.11003 17.9243 8.19043 17.5942C8.27507 17.2642 8.44645 16.9447 8.70459 16.6357L9.18701 16.0708C9.28434 15.6265 9.40283 15.1969 9.54248 14.7822C9.68213 14.3675 9.79639 14.0671 9.88525 13.8809C10.0418 13.5381 10.2703 13.263 10.5708 13.0557C10.8755 12.8441 11.2246 12.715 11.6182 12.6685C11.762 12.6515 11.9673 12.6367 12.2339 12.624C12.5047 12.6113 12.8285 12.6007 13.2051 12.5923C13.5859 12.5838 14.0155 12.5796 14.4937 12.5796C14.9803 12.5796 15.4119 12.5838 15.7886 12.5923C16.1694 12.5965 16.4932 12.6071 16.7598 12.624C17.0306 12.6367 17.2358 12.6515 17.3755 12.6685C17.769 12.7192 18.116 12.8504 18.4165 13.062C18.7212 13.2694 18.9539 13.5423 19.1147 13.8809C19.1994 14.0671 19.3115 14.3675 19.4512 14.7822C19.5908 15.1969 19.7093 15.6265 19.8066 16.0708L20.2891 16.6357C20.5514 16.9447 20.7228 17.2642 20.8032 17.5942C20.8879 17.9243 20.9302 18.3348 20.9302 18.8257V19.7207C20.9302 20.1523 20.8011 20.4993 20.543 20.7617C20.2848 21.0283 19.9315 21.187 19.4829 21.2378C19.2459 21.2632 18.9391 21.2886 18.5625 21.314C18.1859 21.3394 17.769 21.3605 17.312 21.3774C16.855 21.3944 16.3831 21.4071 15.8965 21.4155C15.4141 21.4282 14.9465 21.4346 14.4937 21.4346ZM14.4937 20.0889C14.938 20.0889 15.3823 20.0825 15.8267 20.0698C16.2752 20.0614 16.7048 20.0465 17.1152 20.0254C17.5299 20.0085 17.9023 19.9894 18.2324 19.9683C18.5667 19.9471 18.8376 19.9259 19.0449 19.9048C19.248 19.8836 19.394 19.8244 19.4829 19.7271C19.576 19.6297 19.6226 19.488 19.6226 19.3018V18.6479C19.6226 18.3306 19.5845 18.0809 19.5083 17.8989C19.4364 17.7127 19.3369 17.5392 19.21 17.3784L18.5942 16.5596C18.5604 16.3861 18.5075 16.166 18.4355 15.8994C18.3636 15.6328 18.2874 15.3747 18.207 15.125C18.1266 14.8753 18.0547 14.687 17.9912 14.5601C17.8981 14.3696 17.7754 14.23 17.623 14.1411C17.4749 14.048 17.3057 13.9909 17.1152 13.9697C16.9248 13.9443 16.6095 13.9232 16.1694 13.9062C15.7336 13.8851 15.175 13.8745 14.4937 13.8745C13.8166 13.8745 13.2601 13.883 12.8242 13.8999C12.3883 13.9168 12.071 13.9401 11.8721 13.9697C11.6816 13.9909 11.5124 14.0459 11.3643 14.1348C11.2161 14.2236 11.0977 14.359 11.0088 14.541C10.9453 14.6807 10.8713 14.8796 10.7866 15.1377C10.7062 15.3916 10.63 15.6519 10.5581 15.9185C10.4862 16.1851 10.4333 16.3988 10.3994 16.5596L9.78369 17.3784C9.66097 17.5392 9.56152 17.7127 9.48535 17.8989C9.41341 18.0809 9.37744 18.3306 9.37744 18.6479V19.3018C9.37744 19.488 9.42188 19.6297 9.51074 19.7271C9.59961 19.8244 9.74561 19.8836 9.94873 19.9048C10.1603 19.9259 10.4312 19.9471 10.7612 19.9683C11.0955 19.9894 11.4679 20.0085 11.8784 20.0254C12.2889 20.0465 12.7184 20.0614 13.167 20.0698C13.6156 20.0825 14.0578 20.0889 14.4937 20.0889ZM11.0405 15.8105C11.0828 15.6455 11.1357 15.4657 11.1992 15.271C11.2627 15.0721 11.3177 14.9282 11.3643 14.8394C11.4447 14.6785 11.542 14.5643 11.6562 14.4966C11.7705 14.4289 11.9207 14.3802 12.1069 14.3506C12.2424 14.3337 12.509 14.321 12.9067 14.3125C13.3045 14.2998 13.8335 14.2935 14.4937 14.2935C15.1623 14.2935 15.6934 14.2998 16.0869 14.3125C16.4847 14.321 16.7513 14.3337 16.8867 14.3506C17.0771 14.3802 17.2274 14.4289 17.3374 14.4966C17.4517 14.5643 17.549 14.6785 17.6294 14.8394C17.6802 14.9282 17.7373 15.0721 17.8008 15.271C17.8643 15.4657 17.9172 15.6455 17.9595 15.8105C17.9891 15.946 17.9743 16.0539 17.915 16.1343C17.8558 16.2104 17.7521 16.2464 17.604 16.2422C17.422 16.238 17.1978 16.2316 16.9312 16.2231C16.6688 16.2104 16.3408 16.1999 15.9473 16.1914C15.5537 16.1829 15.0692 16.1787 14.4937 16.1787C13.9266 16.1787 13.4463 16.1829 13.0527 16.1914C12.6592 16.1999 12.3291 16.2104 12.0625 16.2231C11.7959 16.2316 11.5737 16.238 11.396 16.2422C11.2479 16.2464 11.1442 16.2104 11.085 16.1343C11.0257 16.0539 11.0109 15.946 11.0405 15.8105ZM10.8628 19.6001C10.6004 19.6001 10.3804 19.5112 10.2026 19.3335C10.0291 19.1558 9.94238 18.9357 9.94238 18.6733C9.94238 18.411 10.0291 18.193 10.2026 18.0195C10.3804 17.8418 10.6004 17.7529 10.8628 17.7529C11.1294 17.7529 11.3494 17.8418 11.5229 18.0195C11.7007 18.193 11.7896 18.411 11.7896 18.6733C11.7896 18.9357 11.7007 19.1558 11.5229 19.3335C11.3494 19.5112 11.1294 19.6001 10.8628 19.6001ZM13.0591 19.3589C12.8644 19.3589 12.7015 19.2954 12.5703 19.1685C12.4434 19.0415 12.3799 18.8786 12.3799 18.6797C12.3799 18.485 12.4434 18.3242 12.5703 18.1973C12.7015 18.0703 12.8644 18.0068 13.0591 18.0068H15.9346C16.1335 18.0068 16.2964 18.0703 16.4233 18.1973C16.5503 18.3242 16.6138 18.485 16.6138 18.6797C16.6138 18.8786 16.5503 19.0415 16.4233 19.1685C16.2964 19.2954 16.1335 19.3589 15.9346 19.3589H13.0591ZM18.1309 19.6001C17.8643 19.6001 17.6421 19.5112 17.4644 19.3335C17.2909 19.1558 17.2041 18.9357 17.2041 18.6733C17.2041 18.411 17.2909 18.193 17.4644 18.0195C17.6421 17.8418 17.8643 17.7529 18.1309 17.7529C18.3932 17.7529 18.6133 17.8418 18.791 18.0195C18.9688 18.193 19.0576 18.411 19.0576 18.6733C19.0576 18.9357 18.9688 19.1558 18.791 19.3335C18.6133 19.5112 18.3932 19.6001 18.1309 19.6001ZM9.09814 22.7993C8.89925 22.7993 8.7321 22.7316 8.59668 22.5962C8.46126 22.4608 8.39355 22.2936 8.39355 22.0947V20.1587L10.501 20.7617V22.0947C10.501 22.2936 10.4312 22.4608 10.2915 22.5962C10.1519 22.7316 9.9847 22.7993 9.79004 22.7993H9.09814ZM19.1846 22.7993C18.9857 22.7993 18.8164 22.7316 18.6768 22.5962C18.5371 22.4608 18.4673 22.2936 18.4673 22.0947V20.7617L20.5747 20.1587V22.0947C20.5747 22.2936 20.507 22.4608 20.3716 22.5962C20.2362 22.7316 20.069 22.7993 19.8701 22.7993H19.1846Z" fill="#0B72F0"/>
</svg>
